# xmcd
#
# Track frame offsets:
#	150
#	25935
#	39736
#	55131
#	75758
#
# Disc length: 1383 seconds
#
# Revision: 1
# Processed by: cddbd v1.5PL3 Copyright (c) Steve Scherf et al.
# Submitted via: CDmax 2.0
#
DISCID=2f056505
DTITLE=Shabfas - Shabfas Demo CD
DYEAR=2004
DGENRE=R and B
TTITLE0=Tonight is the Night
TTITLE1=Turning Point
TTITLE2=Yonder's Wall
TTITLE3=Ain't that a Bitch
TTITLE4=Mister Magic
EXTD=
EXTT0=
EXTT1=
EXTT2=
EXTT3=
EXTT4=
PLAYORDER=
